HIERARCHY
ROOT mixamorig:Hips
{
	OFFSET 0.000000 201.639420 0.000000
	CHANNELS 6 Xposition Yposition Zposition Xrotation Yrotation Zrotation
	JOINT mixamorig:Spine
	{
		OFFSET 0.006200 19.524994 -2.481800
		CHANNELS 3 Xrotation Yrotation Zrotation
		JOINT mixamorig:Spine1
		{
			OFFSET -0.000900 22.835007 -2.825400
			CHANNELS 3 Xrotation Yrotation Zrotation
			JOINT mixamorig:Spine2
			{
				OFFSET -0.020600 26.552490 -3.193300
				CHANNELS 3 Xrotation Yrotation Zrotation
				JOINT mixamorig:Neck
				{
					OFFSET -0.060000 30.701813 1.352200
					CHANNELS 3 Xrotation Yrotation Zrotation
					JOINT mixamorig:Head
					{
						OFFSET -0.087200 22.547607 3.670900
						CHANNELS 3 Xrotation Yrotation Zrotation
						JOINT mixamorig:HeadTop_End
						{
							OFFSET -0.830600 40.355194 7.893500
							CHANNELS 3 Xrotation Yrotation Zrotation
							End Site
							{
								OFFSET 0.000000 30.592346 0.000000
							}
						}
						JOINT mixamorig:RightEye
						{
							OFFSET -6.302100 18.118591 16.197100
							CHANNELS 3 Xrotation Yrotation Zrotation
							End Site
							{
								OFFSET 0.000000 30.592346 0.000000
							}
						}
						JOINT mixamorig:LeftEye
						{
							OFFSET 6.741500 18.382690 16.401899
							CHANNELS 3 Xrotation Yrotation Zrotation
							End Site
							{
								OFFSET 0.000000 30.592346 0.000000
							}
						}
					}
				}
				JOINT mixamorig:LeftShoulder
				{
					OFFSET 11.924900 18.230499 1.425400
					CHANNELS 3 Xrotation Yrotation Zrotation
					JOINT mixamorig:LeftArm
					{
						OFFSET 25.435989 -0.697632 -5.229300
						CHANNELS 3 Xrotation Yrotation Zrotation
						JOINT mixamorig:LeftForeArm
						{
							OFFSET 54.684776 0.000000 0.000000
							CHANNELS 3 Xrotation Yrotation Zrotation
							JOINT mixamorig:LeftHand
							{
								OFFSET 55.098175 0.000000 0.000000
								CHANNELS 3 Xrotation Yrotation Zrotation
								JOINT mixamorig:LeftHandMiddle1
								{
									OFFSET 23.369751 0.000000 0.000000
									CHANNELS 3 Xrotation Yrotation Zrotation
									JOINT mixamorig:LeftHandMiddle2
									{
										OFFSET 6.378677 0.000000 0.000000
										CHANNELS 3 Xrotation Yrotation Zrotation
										JOINT mixamorig:LeftHandMiddle3
										{
											OFFSET 6.148331 0.000000 0.000000
											CHANNELS 3 Xrotation Yrotation Zrotation
											JOINT mixamorig:LeftHandMiddle4
											{
												OFFSET 6.582504 0.000000 0.000000
												CHANNELS 3 Xrotation Yrotation Zrotation
												End Site
												{
													OFFSET -1.168900 6.395691 1.028606
												}
											}
										}
									}
								}
								JOINT mixamorig:LeftHandThumb1
								{
									OFFSET 7.235672 -3.848206 5.434273
									CHANNELS 3 Xrotation Yrotation Zrotation
									JOINT mixamorig:LeftHandThumb2
									{
										OFFSET 6.568451 -3.792297 3.792300
										CHANNELS 3 Xrotation Yrotation Zrotation
										JOINT mixamorig:LeftHandThumb3
										{
											OFFSET 6.063080 -3.500519 3.500518
											CHANNELS 3 Xrotation Yrotation Zrotation
											JOINT mixamorig:LeftHandThumb4
											{
												OFFSET 4.793182 -2.767334 2.767349
												CHANNELS 3 Xrotation Yrotation Zrotation
												End Site
												{
													OFFSET 0.101639 6.054260 1.275483
												}
											}
										}
									}
								}
								JOINT mixamorig:LeftHandIndex1
								{
									OFFSET 23.101074 -0.309540 4.992809
									CHANNELS 3 Xrotation Yrotation Zrotation
									JOINT mixamorig:LeftHandIndex2
									{
										OFFSET 6.226883 0.000000 0.000000
										CHANNELS 3 Xrotation Yrotation Zrotation
										JOINT mixamorig:LeftHandIndex3
										{
											OFFSET 6.094330 0.000000 0.000000
											CHANNELS 3 Xrotation Yrotation Zrotation
											JOINT mixamorig:LeftHandIndex4
											{
												OFFSET 5.482605 0.000000 0.000000
												CHANNELS 3 Xrotation Yrotation Zrotation
												End Site
												{
													OFFSET -1.427902 5.233032 0.797164
												}
											}
										}
									}
								}
								JOINT mixamorig:LeftHandRing1
								{
									OFFSET 22.299240 0.021149 -3.964172
									CHANNELS 3 Xrotation Yrotation Zrotation
									JOINT mixamorig:LeftHandRing2
									{
										OFFSET 6.321869 0.000000 0.000000
										CHANNELS 3 Xrotation Yrotation Zrotation
										JOINT mixamorig:LeftHandRing3
										{
											OFFSET 5.899796 0.000000 0.000000
											CHANNELS 3 Xrotation Yrotation Zrotation
											JOINT mixamorig:LeftHandRing4
											{
												OFFSET 6.517899 0.000000 0.000000
												CHANNELS 3 Xrotation Yrotation Zrotation
												End Site
												{
													OFFSET -1.637299 6.232208 0.980890
												}
											}
										}
									}
								}
								JOINT mixamorig:LeftHandPinky1
								{
									OFFSET 20.463791 -0.302338 -8.562233
									CHANNELS 3 Xrotation Yrotation Zrotation
									JOINT mixamorig:LeftHandPinky2
									{
										OFFSET 6.908646 0.000000 0.000000
										CHANNELS 3 Xrotation Yrotation Zrotation
										JOINT mixamorig:LeftHandPinky3
										{
											OFFSET 4.622849 0.000000 0.000000
											CHANNELS 3 Xrotation Yrotation Zrotation
											JOINT mixamorig:LeftHandPinky4
											{
												OFFSET 5.216080 0.000000 0.000000
												CHANNELS 3 Xrotation Yrotation Zrotation
												End Site
												{
													OFFSET -0.606308 5.116241 0.814926
												}
											}
										}
									}
								}
							}
						}
					}
				}
				JOINT mixamorig:RightShoulder
				{
					OFFSET -12.001300 18.284088 1.348900
					CHANNELS 3 Xrotation Yrotation Zrotation
					JOINT mixamorig:RightArm
					{
						OFFSET -25.308500 -0.751312 -5.164599
						CHANNELS 3 Xrotation Yrotation Zrotation
						JOINT mixamorig:RightForeArm
						{
							OFFSET -54.684429 0.000000 0.000000
							CHANNELS 3 Xrotation Yrotation Zrotation
							JOINT mixamorig:RightHand
							{
								OFFSET -55.150291 0.000000 0.000000
								CHANNELS 3 Xrotation Yrotation Zrotation
								JOINT mixamorig:RightHandMiddle1
								{
									OFFSET -23.317566 0.000000 0.000000
									CHANNELS 3 Xrotation Yrotation Zrotation
									JOINT mixamorig:RightHandMiddle2
									{
										OFFSET -6.378403 0.000000 0.000000
										CHANNELS 3 Xrotation Yrotation Zrotation
										JOINT mixamorig:RightHandMiddle3
										{
											OFFSET -6.148193 0.000000 0.000000
											CHANNELS 3 Xrotation Yrotation Zrotation
											JOINT mixamorig:RightHandMiddle4
											{
												OFFSET -6.583389 0.000000 0.000000
												CHANNELS 3 Xrotation Yrotation Zrotation
												End Site
												{
													OFFSET 1.171692 6.395905 1.029786
												}
											}
										}
									}
								}
								JOINT mixamorig:RightHandThumb1
								{
									OFFSET -7.190521 -3.860474 5.435846
									CHANNELS 3 Xrotation Yrotation Zrotation
									JOINT mixamorig:RightHandThumb2
									{
										OFFSET -6.567429 -3.791718 3.791708
										CHANNELS 3 Xrotation Yrotation Zrotation
										JOINT mixamorig:RightHandThumb3
										{
											OFFSET -6.062469 -3.500153 3.500166
											CHANNELS 3 Xrotation Yrotation Zrotation
											JOINT mixamorig:RightHandThumb4
											{
												OFFSET -4.792618 -2.767029 2.767022
												CHANNELS 3 Xrotation Yrotation Zrotation
												End Site
												{
													OFFSET -0.100327 6.053253 1.276754
												}
											}
										}
									}
								}
								JOINT mixamorig:RightHandIndex1
								{
									OFFSET -23.048981 -0.310791 4.992554
									CHANNELS 3 Xrotation Yrotation Zrotation
									JOINT mixamorig:RightHandIndex2
									{
										OFFSET -6.227539 0.000000 0.000000
										CHANNELS 3 Xrotation Yrotation Zrotation
										JOINT mixamorig:RightHandIndex3
										{
											OFFSET -6.095047 0.000000 0.000000
											CHANNELS 3 Xrotation Yrotation Zrotation
											JOINT mixamorig:RightHandIndex4
											{
												OFFSET -5.484772 0.000000 0.000000
												CHANNELS 3 Xrotation Yrotation Zrotation
												End Site
												{
													OFFSET 1.420593 5.237305 0.797056
												}
											}
										}
									}
								}
								JOINT mixamorig:RightHandRing1
								{
									OFFSET -22.246323 0.020569 -3.963762
									CHANNELS 3 Xrotation Yrotation Zrotation
									JOINT mixamorig:RightHandRing2
									{
										OFFSET -6.322128 0.000000 0.000000
										CHANNELS 3 Xrotation Yrotation Zrotation
										JOINT mixamorig:RightHandRing3
										{
											OFFSET -5.900024 0.000000 0.000000
											CHANNELS 3 Xrotation Yrotation Zrotation
											JOINT mixamorig:RightHandRing4
											{
												OFFSET -6.518356 0.000000 0.000000
												CHANNELS 3 Xrotation Yrotation Zrotation
												End Site
												{
													OFFSET 1.636398 6.232697 0.982186
												}
											}
										}
									}
								}
								JOINT mixamorig:RightHandPinky1
								{
									OFFSET -20.411011 -0.303314 -8.561701
									CHANNELS 3 Xrotation Yrotation Zrotation
									JOINT mixamorig:RightHandPinky2
									{
										OFFSET -6.907349 0.000000 0.000000
										CHANNELS 3 Xrotation Yrotation Zrotation
										JOINT mixamorig:RightHandPinky3
										{
											OFFSET -4.623840 0.000000 0.000000
											CHANNELS 3 Xrotation Yrotation Zrotation
											JOINT mixamorig:RightHandPinky4
											{
												OFFSET -5.218353 0.000000 0.000000
												CHANNELS 3 Xrotation Yrotation Zrotation
												End Site
												{
													OFFSET 0.602097 5.118835 0.816273
												}
											}
										}
									}
								}
							}
						}
					}
				}
			}
		}
	}
	JOINT mixamorig:LeftUpLeg
	{
		OFFSET 18.168400 -13.561905 -0.039000
		CHANNELS 3 Xrotation Yrotation Zrotation
		JOINT mixamorig:LeftLeg
		{
			OFFSET 0.577358 -80.825211 -3.695000
			CHANNELS 3 Xrotation Yrotation Zrotation
			JOINT mixamorig:LeftFoot
			{
				OFFSET -0.577356 -83.370262 -6.520700
				CHANNELS 3 Xrotation Yrotation Zrotation
				JOINT mixamorig:LeftToeBase
				{
					OFFSET 0.750401 -20.798306 25.135401
					CHANNELS 3 Xrotation Yrotation Zrotation
					JOINT mixamorig:LeftToe_End
					{
						OFFSET -0.000500 0.001200 19.917799
						CHANNELS 3 Xrotation Yrotation Zrotation
						End Site
						{
							OFFSET 0.000000 19.917805 0.000000
						}
					}
				}
			}
		}
	}
	JOINT mixamorig:RightUpLeg
	{
		OFFSET -18.162500 -13.585098 -0.041000
		CHANNELS 3 Xrotation Yrotation Zrotation
		JOINT mixamorig:RightLeg
		{
			OFFSET -0.595024 -80.945297 -3.631900
			CHANNELS 3 Xrotation Yrotation Zrotation
			JOINT mixamorig:RightFoot
			{
				OFFSET 0.595024 -83.218193 -6.561200
				CHANNELS 3 Xrotation Yrotation Zrotation
				JOINT mixamorig:RightToeBase
				{
					OFFSET -0.753601 -20.807106 25.115000
					CHANNELS 3 Xrotation Yrotation Zrotation
					JOINT mixamorig:RightToe_End
					{
						OFFSET 0.000299 0.001700 19.918200
						CHANNELS 3 Xrotation Yrotation Zrotation
						End Site
						{
							OFFSET 0.000000 19.918203 0.000000
						}
					}
				}
			}
		}
	}
}
MOTION
Frames: 5
Frame Time: 0.033333
0.354574 182.371017 -3.499283 12.161405 -19.559661 1.690933 3.261858 -0.582231 1.204214 8.252521 -1.097849 0.671712 8.262624 -1.049267 0.605784 -6.340828 3.736276 -2.187545 -23.618500 16.114030 0.657974 0.000000 -0.000000 0.000000 0.000000 -0.000000 0.000000 0.000000 -0.000000 0.000000 0.493395 5.237166 -10.779318 -8.597217 -21.179127 -55.196395 -0.000308 -81.569309 -0.000326 19.941494 4.684426 19.006104 0.731734 3.093812 -26.607673 0.757326 3.144332 -27.077861 0.191590 1.616121 -13.520555 -0.000001 0.000002 -0.000001 -1.721050 -12.290813 3.751988 5.567444 29.295521 2.191137 0.352140 12.222926 3.540887 0.000002 0.000001 0.000001 0.732598 3.095538 -26.623710 0.756460 3.142601 -27.061833 0.191585 1.616125 -13.520546 -0.000000 -0.000001 0.000000 0.732597 3.095540 -26.623710 0.756470 3.142613 -27.061831 0.191578 1.616111 -13.520561 -0.000001 -0.000001 -0.000000 2.544557 6.725885 -26.268482 0.765321 -0.918162 -27.518153 0.191567 1.616133 -13.520552 -0.000001 -0.000000 -0.000000 1.791467 5.015190 10.516084 -17.587616 20.433266 65.964232 -0.001791 90.458745 0.002038 26.604212 -5.771167 -1.221405 0.739652 -3.125705 26.621441 0.763492 -3.172749 27.055180 0.193366 -1.631614 13.517017 0.000001 0.000001 -0.000000 -2.042893 12.386426 -4.088329 6.462143 -29.972530 -1.513059 -0.341960 -10.502930 -3.187594 -0.000001 0.000000 0.000003 0.739660 -3.125717 26.621439 0.763495 -3.172720 27.055194 0.193366 -1.631627 13.517012 -0.000000 -0.000002 -0.000002 0.739652 -3.125716 26.621439 0.763499 -3.172743 27.055170 0.193367 -1.631607 13.517020 -0.000001 -0.000003 0.000002 0.739654 -3.125710 26.621441 0.763493 -3.172738 27.055177 0.193365 -1.631604 13.517025 -0.000002 -0.000002 -0.000000 -50.291260 6.565182 25.120420 37.512929 8.158034 0.987027 3.595928 0.494947 -14.054049 0.000515 0.000001 -0.000008 -0.000000 -0.000000 0.000000 -48.024095 -9.715513 -17.494835 46.593423 -8.325055 2.174612 -7.542211 -1.109661 9.733639 -0.003048 0.000029 0.000002 -0.000000 -0.000000 0.000000 
0.374812 182.395599 -3.529335 12.138632 -19.741653 1.688062 3.234857 -0.498418 1.213864 8.197999 -0.920677 0.692336 8.207670 -0.871288 0.623247 -6.490226 3.744641 -2.307788 -23.841042 15.933583 0.873991 0.000000 -0.000000 -0.000000 0.000000 -0.000000 -0.000000 0.000000 -0.000000 -0.000000 0.491502 5.264698 -10.797273 -8.621116 -20.947323 -55.423071 0.000032 -81.591268 0.000028 19.815965 4.714052 19.230659 0.731732 3.093813 -26.607678 0.757327 3.144335 -27.077860 0.191593 1.616130 -13.520552 -0.000000 0.000003 -0.000001 -1.721053 -12.290812 3.751984 5.567443 29.295521 2.191140 0.352140 12.222930 3.540882 0.000001 0.000001 0.000001 0.732597 3.095538 -26.623714 0.756460 3.142599 -27.061834 0.191584 1.616122 -13.520543 -0.000002 0.000003 -0.000001 0.732600 3.095543 -26.623714 0.756466 3.142613 -27.061834 0.191579 1.616113 -13.520558 -0.000001 0.000001 0.000002 2.544552 6.725884 -26.268481 0.765319 -0.918162 -27.518158 0.191568 1.616132 -13.520555 -0.000001 -0.000001 0.000000 1.760522 4.933481 10.281750 -17.410403 20.274261 65.595539 0.004235 90.652702 -0.004120 25.950867 -5.834323 -1.286483 0.739657 -3.125704 26.621439 0.763486 -3.172751 27.055175 0.193359 -1.631614 13.517020 0.000000 -0.000003 0.000001 -2.042894 12.386426 -4.088331 6.462140 -29.972533 -1.513060 -0.341961 -10.502932 -3.187597 0.000001 -0.000000 0.000001 0.739660 -3.125718 26.621439 0.763500 -3.172717 27.055187 0.193361 -1.631628 13.517012 -0.000000 0.000001 0.000000 0.739653 -3.125719 26.621439 0.763495 -3.172737 27.055172 0.193362 -1.631607 13.517025 -0.000001 -0.000002 0.000001 0.739657 -3.125708 26.621444 0.763493 -3.172736 27.055182 0.193362 -1.631608 13.517025 -0.000001 0.000000 -0.000000 -50.249825 6.683016 25.310441 37.493859 8.106391 0.884004 3.617465 0.490734 -14.012038 0.000495 0.000002 0.000000 0.000000 -0.000001 0.000000 -47.975146 -9.637167 -17.333178 46.495983 -8.209953 2.088499 -7.490785 -1.101602 9.741823 -0.003048 0.000029 0.000002 -0.000000 -0.000000 -0.000000 
0.437955 182.411499 -3.533531 12.115376 -19.935693 1.684252 3.212085 -0.432534 1.223778 8.155067 -0.780847 0.715584 8.164491 -0.730551 0.643992 -6.618727 3.754376 -2.393386 -24.022440 15.828048 1.011510 -0.000000 0.000000 -0.000000 -0.000000 0.000000 -0.000000 -0.000000 0.000000 -0.000000 0.489804 5.293435 -10.821385 -8.645590 -20.734472 -55.627386 -0.000216 -81.607455 -0.000228 19.694683 4.743332 19.438382 0.731732 3.093813 -26.607673 0.757327 3.144333 -27.077861 0.191592 1.616124 -13.520555 -0.000001 0.000001 -0.000000 -1.721057 -12.290815 3.751986 5.567441 29.295521 2.191143 0.352140 12.222927 3.540886 -0.000001 -0.000000 0.000000 0.732600 3.095539 -26.623709 0.756461 3.142597 -27.061833 0.191585 1.616119 -13.520545 -0.000001 0.000004 0.000000 0.732601 3.095544 -26.623712 0.756465 3.142609 -27.061829 0.191579 1.616113 -13.520558 0.000000 -0.000003 0.000000 2.544553 6.725887 -26.268484 0.765321 -0.918160 -27.518154 0.191566 1.616134 -13.520555 0.000000 0.000000 0.000000 1.733573 4.856355 10.092855 -17.245575 20.175084 65.310310 -0.002548 90.807283 0.002564 25.392215 -5.892040 -1.324351 0.739654 -3.125703 26.621439 0.763486 -3.172750 27.055177 0.193359 -1.631615 13.517018 0.000000 -0.000003 0.000000 -2.042896 12.386423 -4.088328 6.462141 -29.972533 -1.513060 -0.341960 -10.502925 -3.187596 -0.000001 -0.000000 -0.000000 0.739655 -3.125717 26.621439 0.763489 -3.172717 27.055189 0.193362 -1.631626 13.517010 -0.000001 -0.000001 0.000000 0.739654 -3.125716 26.621441 0.763493 -3.172745 27.055175 0.193359 -1.631603 13.517025 0.000001 -0.000001 -0.000001 0.739650 -3.125707 26.621448 0.763497 -3.172737 27.055182 0.193364 -1.631609 13.517024 -0.000001 -0.000002 0.000003 -50.219068 6.784641 25.490006 37.527508 8.077360 0.785782 3.612327 0.488769 -13.986630 0.000438 -0.000016 0.000001 -0.000000 -0.000001 -0.000000 -47.930115 -9.564734 -17.186199 46.394343 -8.068829 1.995834 -7.431699 -1.096365 9.761181 -0.003048 0.000031 0.000002 0.000000 0.000000 -0.000000 
0.536894 182.417603 -3.514042 12.091312 -20.140317 1.680212 3.196466 -0.396428 1.235752 8.130996 -0.703125 0.744646 8.140461 -0.651889 0.671448 -6.704856 3.764295 -2.412892 -24.121180 15.852381 1.000905 -0.000000 -0.000000 0.000000 -0.000000 -0.000000 0.000000 -0.000000 -0.000000 0.000000 0.488326 5.325251 -10.855904 -8.669434 -20.562826 -55.790939 0.000126 -81.614607 0.000131 19.585658 4.770374 19.608049 0.731739 3.093815 -26.607676 0.757327 3.144333 -27.077860 0.191592 1.616124 -13.520554 -0.000000 0.000003 0.000001 -1.721051 -12.290813 3.751989 5.567451 29.295521 2.191142 0.352138 12.222928 3.540884 0.000003 0.000000 -0.000000 0.732596 3.095537 -26.623702 0.756460 3.142597 -27.061831 0.191584 1.616121 -13.520543 -0.000001 0.000003 -0.000000 0.732599 3.095541 -26.623712 0.756469 3.142611 -27.061834 0.191579 1.616111 -13.520556 -0.000001 -0.000001 0.000002 2.544559 6.725886 -26.268486 0.765318 -0.918160 -27.518156 0.191566 1.616132 -13.520552 -0.000001 -0.000006 0.000000 1.716202 4.791370 9.998465 -17.102684 20.151351 65.177879 0.001756 90.897769 -0.001765 25.023117 -5.944027 -1.309383 0.739655 -3.125706 26.621439 0.763488 -3.172747 27.055177 0.193356 -1.631613 13.517023 -0.000001 0.000000 0.000001 -2.042900 12.386425 -4.088330 6.462140 -29.972537 -1.513059 -0.341960 -10.502924 -3.187595 0.000000 0.000003 -0.000001 0.739655 -3.125717 26.621439 0.763494 -3.172716 27.055201 0.193358 -1.631622 13.517011 0.000001 0.000003 -0.000002 0.739650 -3.125718 26.621441 0.763495 -3.172745 27.055173 0.193364 -1.631601 13.517027 -0.000001 0.000002 0.000003 0.739653 -3.125708 26.621448 0.763490 -3.172739 27.055182 0.193367 -1.631611 13.517016 -0.000001 -0.000001 0.000001 -50.196378 6.867120 25.653859 37.610894 8.074528 0.698317 3.577932 0.490172 -13.974594 0.000331 0.000007 -0.000007 -0.000000 -0.000001 0.000000 -47.891869 -9.502809 -17.058655 46.294459 -7.904105 1.903188 -7.368148 -1.093615 9.785321 -0.003048 0.000027 0.000002 -0.000000 0.000000 -0.000000 
0.659567 182.414001 -3.477425 12.066339 -20.352075 1.675984 3.187074 -0.384960 1.253174 8.120361 -0.677859 0.781605 8.130161 -0.625623 0.707301 -6.739259 3.771228 -2.363743 -24.130176 15.993318 0.845322 0.000000 0.000000 -0.000000 0.000000 0.000000 -0.000000 0.000000 0.000000 -0.000000 0.487369 5.363584 -10.911811 -8.693741 -20.478415 -55.869025 -0.000103 -81.603863 -0.000118 19.500887 4.793562 19.695513 0.731729 3.093811 -26.607678 0.757329 3.144333 -27.077861 0.191590 1.616123 -13.520552 -0.000003 0.000003 0.000002 -1.721053 -12.290813 3.751986 5.567450 29.295518 2.191142 0.352139 12.222926 3.540885 0.000003 0.000004 -0.000002 0.732594 3.095537 -26.623712 0.756462 3.142599 -27.061833 0.191582 1.616118 -13.520541 -0.000002 -0.000002 0.000001 0.732597 3.095540 -26.623709 0.756462 3.142609 -27.061836 0.191577 1.616108 -13.520554 -0.000000 -0.000000 0.000001 2.544556 6.725884 -26.268481 0.765322 -0.918162 -27.518158 0.191568 1.616132 -13.520551 -0.000001 0.000007 -0.000000 1.711576 4.746605 10.019998 -16.985883 20.142209 65.206873 0.000822 90.940028 -0.000691 24.871926 -5.997524 -1.242403 0.739655 -3.125704 26.621439 0.763493 -3.172749 27.055173 0.193366 -1.631619 13.517016 0.000000 -0.000004 0.000000 -2.042892 12.386423 -4.088328 6.462136 -29.972533 -1.513059 -0.341961 -10.502930 -3.187596 -0.000004 0.000000 0.000002 0.739663 -3.125716 26.621438 0.763492 -3.172715 27.055192 0.193365 -1.631622 13.517010 0.000002 0.000002 -0.000003 0.739655 -3.125717 26.621439 0.763496 -3.172744 27.055170 0.193360 -1.631605 13.517023 -0.000002 -0.000002 0.000002 0.739655 -3.125707 26.621443 0.763494 -3.172735 27.055175 0.193362 -1.631608 13.517021 0.000000 -0.000001 0.000002 -50.178685 6.929315 25.797377 37.732953 8.098811 0.631422 3.519916 0.494420 -13.981223 0.000196 0.000002 -0.000002 -0.000000 0.000001 -0.000000 -47.862506 -9.451214 -16.949152 46.203556 -7.732194 1.815902 -7.302656 -1.092574 9.809758 -0.003048 0.000029 0.000002 0.000000 0.000000 -0.000000 
